<?xml version="1.0" encoding="utf-8"?>
<!-- Generator: Adobe Illustrator 23.0.0, SVG Export Plug-In . SVG Version: 6.00 Build 0)  -->
<svg version="1.1" id="Layer_1" xmlns="http://www.w3.org/2000/svg" xmlns:xlink="http://www.w3.org/1999/xlink" x="0px" y="0px"
	 viewBox="0 0 370.9 512" style="enable-background:new 0 0 370.9 512;" xml:space="preserve">
<style type="text/css">
	.st0{fill:#F44336;}
	.st1{fill:#FFFFFF;}
</style>
<g>
	<g>
		<g>
			<path class="st0" d="M185.4,0C83.2,0,0,83.2,0,185.4c0,126.9,165.9,313.2,173,321c6.6,7.4,18.2,7.4,24.8,0
				c7.1-7.9,173-194.1,173-321C370.9,83.2,287.7,0,185.4,0z M185.4,278.7c-51.4,0-93.3-41.9-93.3-93.3s41.9-93.3,93.3-93.3
				s93.3,41.9,93.3,93.3S236.9,278.7,185.4,278.7z"/>
		</g>
	</g>
</g>
<ellipse transform="matrix(0.7071 -0.7071 0.7071 0.7071 -77.1145 185.1548)" class="st1" cx="184.9" cy="185.7" rx="93.3" ry="93.3"/>
</svg>
